<?xml version="1.0" encoding="UTF-8" standalone="no"?>
<!-- Created with Inkscape (http://www.inkscape.org/) -->

<svg
   xmlns:dc="http://purl.org/dc/elements/1.1/"
   xmlns:cc="http://creativecommons.org/ns#"
   xmlns:rdf="http://www.w3.org/1999/02/22-rdf-syntax-ns#"
   xmlns:svg="http://www.w3.org/2000/svg"
   xmlns="http://www.w3.org/2000/svg"
   xmlns:sodipodi="http://sodipodi.sourceforge.net/DTD/sodipodi-0.dtd"
   xmlns:inkscape="http://www.inkscape.org/namespaces/inkscape"
   width="61.856255mm"
   height="61.18515mm"
   viewBox="0 0 210.31126 208.0295"
   version="1.1"
   id="svg8"
   inkscape:version="0.92.2 5c3e80d, 2017-08-06"
   sodipodi:docname="globe.svg">
  <defs
     id="defs2" />
  <sodipodi:namedview
     id="base"
     pagecolor="#ffffff"
     bordercolor="#666666"
     borderopacity="1.0"
     inkscape:pageopacity="0.0"
     inkscape:pageshadow="2"
     inkscape:zoom="0.58"
     inkscape:cx="447.91658"
     inkscape:cy="-306.38763"
     inkscape:document-units="mm"
     inkscape:current-layer="layer1"
     showgrid="false"
     inkscape:window-width="1440"
     inkscape:window-height="878"
     inkscape:window-x="0"
     inkscape:window-y="0"
     inkscape:window-maximized="1"
     fit-margin-left="3"
     fit-margin-top="3"
     fit-margin-bottom="3"
     fit-margin-right="3"
     scale-x="3.4" />
  <metadata
     id="metadata5">
    <rdf:RDF>
      <cc:Work
         rdf:about="">
        <dc:format>image/svg+xml</dc:format>
        <dc:type
           rdf:resource="http://purl.org/dc/dcmitype/StillImage" />
        <dc:title></dc:title>
      </cc:Work>
    </rdf:RDF>
  </metadata>
  <g
     inkscape:label="Layer 1"
     inkscape:groupmode="layer"
     id="layer1"
     transform="translate(0.6903888,0.20620883)">
    <ellipse
       style="fill:none;stroke:#00ffff;stroke-width:1.96500003;stroke-miterlimit:4;stroke-dasharray:none"
       id="path12"
       cx="104.46481"
       cy="104.03664"
       rx="93.972702"
       ry="92.604164" />
    <ellipse
       style="fill:none;stroke:#00ffff;stroke-width:1.93924332;stroke-miterlimit:4;stroke-dasharray:none"
       id="path4511"
       cx="103.32436"
       cy="103.58046"
       rx="62.737373"
       ry="92.617043" />
    <ellipse
       style="fill:none;stroke:#00ffff;stroke-width:1.9697541;stroke-miterlimit:4;stroke-dasharray:none"
       id="path4535"
       cx="103.78053"
       cy="103.58046"
       rx="29.877293"
       ry="92.601791" />
    <ellipse
       style="fill:none;stroke:#00ffff;stroke-width:2.24394536;stroke-miterlimit:4;stroke-dasharray:none"
       id="path4537"
       cx="103.78053"
       cy="104.26472"
       rx="10.580714"
       ry="92.236595" />
    <ellipse
       style="fill:none;stroke:#00ffff;stroke-width:1.95438468;stroke-miterlimit:4;stroke-dasharray:none"
       id="path4539"
       cx="104.46479"
       cy="104.26472"
       rx="47.447834"
       ry="92.381386" />
    <ellipse
       style="fill:none;stroke:#00ffff;stroke-width:2.00659466;stroke-miterlimit:4;stroke-dasharray:none"
       id="path4541"
       ry="92.583366"
       rx="79.126122"
       cy="103.58046"
       cx="104.23671" />
    <path
       style="fill:none;stroke:#00ffff;stroke-width:2.3456099;stroke-miterlimit:4;stroke-dasharray:none"
       id="path4545"
       sodipodi:type="arc"
       sodipodi:cx="104.22089"
       sodipodi:cy="103.01574"
       sodipodi:rx="93.272606"
       sodipodi:ry="77.99395"
       sodipodi:start="0.044007604"
       sodipodi:end="0.040132973"
       d="m 197.40319,106.44696 a 93.272606,77.99395 0 0 1 -97.19542,74.4905 93.272606,77.99395 0 0 1 -89.17696,-81.201981 93.272606,77.99395 0 0 1 97.02265,-74.647819 93.272606,77.99395 0 0 1 89.36493,81.05737"
       sodipodi:open="true" />
    <path
       style="fill:none;stroke:#00ffff;stroke-width:1.80729246;stroke-miterlimit:4;stroke-dasharray:none"
       id="path4547"
       sodipodi:type="arc"
       sodipodi:cx="104.18059"
       sodipodi:cy="102.944"
       sodipodi:rx="93.297722"
       sodipodi:ry="61.173912"
       sodipodi:start="0.044007604"
       sodipodi:end="0.040132973"
       sodipodi:open="true"
       d="M 197.38798,105.63525 A 93.297722,61.173912 0 0 1 100.16639,164.06126 93.297722,61.173912 0 0 1 10.965418,100.37116 93.297722,61.173912 0 0 1 108.0142,41.821753 93.297722,61.173912 0 0 1 197.40318,105.39843" />
    <path
       style="fill:none;stroke:#00ffff;stroke-width:1.94048858;stroke-miterlimit:4;stroke-dasharray:none"
       id="path4549"
       sodipodi:type="arc"
       sodipodi:cx="104.41141"
       sodipodi:cy="103.49747"
       sodipodi:rx="93.066719"
       sodipodi:ry="44.261375"
       sodipodi:start="0.044007604"
       sodipodi:end="0.040132973"
       sodipodi:open="true"
       d="M 197.38802,105.44468 A 93.066719,44.261375 0 0 1 100.40715,147.71785 93.066719,44.261375 0 0 1 11.427036,101.63593 93.066719,44.261375 0 0 1 108.23552,59.273473 93.066719,44.261375 0 0 1 197.40319,105.27333" />
    <path
       style="fill:none;stroke:#00ffff;stroke-width:1.96499991;stroke-miterlimit:4;stroke-dasharray:none"
       id="path4551"
       sodipodi:type="arc"
       sodipodi:cx="104.92097"
       sodipodi:cy="103.58046"
       sodipodi:rx="93.516525"
       sodipodi:ry="24.633621"
       sodipodi:start="0.044007604"
       sodipodi:end="0.040132973"
       sodipodi:open="true"
       d="M 198.34695,104.66418 A 93.516525,24.633621 0 0 1 100.89736,128.19127 93.516525,24.633621 0 0 1 11.487188,102.54442 93.516525,24.633621 0 0 1 108.76357,78.967643 93.516525,24.633621 0 0 1 198.36219,104.56881" />
    <path
       style="fill:none;stroke:#00ffff;stroke-width:2.36884093;stroke-miterlimit:4;stroke-dasharray:none"
       id="path4553"
       sodipodi:type="arc"
       sodipodi:cx="104.19238"
       sodipodi:cy="105.30694"
       sodipodi:rx="93.300842"
       sodipodi:ry="9.6754704"
       sodipodi:start="0.044007604"
       sodipodi:end="0.040132973"
       sodipodi:open="true"
       d="m 197.40289,105.7326 a 93.300842,9.6754704 0 0 1 -97.22484,9.24085 93.300842,9.6754704 0 0 1 -89.203955,-10.07344 93.300842,9.6754704 0 0 1 97.052025,-9.260371 93.300842,9.6754704 0 0 1 89.39198,10.055501" />
  </g>
</svg>
